<svg width="28" height="29" viewBox="0 0 28 29" fill="none" xmlns="http://www.w3.org/2000/svg">
<path d="M13.9997 3.5C18.6094 3.5 22.3622 7.16899 22.4972 11.746L22.5009 12.0012L22.5007 16.613L23.9147 20.257C23.9529 20.3554 23.9787 20.458 23.9916 20.5624L24.0014 20.72C24.0014 21.3827 23.4977 21.9278 22.8522 21.9934L22.7214 22L17.5011 22.0011C17.5011 23.9348 15.9335 25.5025 13.9997 25.5025C12.1304 25.5025 10.6032 24.0376 10.5035 22.1932L10.4981 21.999L5.27448 22C5.11578 22 4.95845 21.9705 4.81054 21.913C4.19286 21.6727 3.86739 21.0057 4.04025 20.3804L4.08152 20.2561L5.4977 16.612L5.49845 12.0012C5.49845 7.30614 9.30459 3.5 13.9997 3.5ZM15.9956 22.1504L16.0001 21.999L11.9983 22.0011C11.9983 23.1064 12.8943 24.0025 13.9997 24.0025C15.0548 24.0025 15.9192 23.186 15.9956 22.1504ZM13.9997 5C10.2136 5 7.12938 8.00532 7.00251 11.7606L6.99845 12.0012V16.7534C6.99845 16.8154 6.99077 16.877 6.97565 16.9369L6.94745 17.0252L5.5957 20.499H22.3997L21.0517 17.0246C21.0293 16.967 21.0142 16.9069 21.0066 16.8457L21.0009 16.7534V12.0012C21.0009 8.13456 17.8664 5 13.9997 5Z" fill="#394046"/>
</svg>
