<svg width="20" height="20" viewBox="0 0 20 20" fill="none" xmlns="http://www.w3.org/2000/svg">
<rect width="20" height="20" rx="10" fill="#E3E6E8"/>
<path d="M5.89705 6.05379L5.96967 5.96967C6.23594 5.7034 6.6526 5.6792 6.94621 5.89705L7.03033 5.96967L10 8.939L12.9697 5.96967C13.2626 5.67678 13.7374 5.67678 14.0303 5.96967C14.3232 6.26256 14.3232 6.73744 14.0303 7.03033L11.061 10L14.0303 12.9697C14.2966 13.2359 14.3208 13.6526 14.1029 13.9462L14.0303 14.0303C13.7641 14.2966 13.3474 14.3208 13.0538 14.1029L12.9697 14.0303L10 11.061L7.03033 14.0303C6.73744 14.3232 6.26256 14.3232 5.96967 14.0303C5.67678 13.7374 5.67678 13.2626 5.96967 12.9697L8.939 10L5.96967 7.03033C5.7034 6.76406 5.6792 6.3474 5.89705 6.05379L5.96967 5.96967L5.89705 6.05379Z" fill="#8F99A3"/>
</svg>
