<svg width="28" height="28" viewBox="0 0 28 28" fill="none" xmlns="http://www.w3.org/2000/svg">
<path d="M16.041 4.08398H11.9577C11.4744 4.08398 11.0827 4.47574 11.0827 4.95898C11.0827 5.44223 11.4744 5.83398 11.9577 5.83398H16.041C16.5243 5.83398 16.916 5.44223 16.916 4.95898C16.916 4.47574 16.5243 4.08398 16.041 4.08398ZM16.041 2.33398C17.37 2.33398 18.4682 3.32152 18.6421 4.60279L18.6578 4.76065L18.6499 4.66667L20.7077 4.66732C22.1574 4.66732 23.3327 5.84257 23.3327 7.29232V23.0423C23.3327 24.4921 22.1574 25.6673 20.7077 25.6673H7.29102C5.84127 25.6673 4.66602 24.4921 4.66602 23.0423V7.29232C4.66602 5.84257 5.84127 4.66732 7.29102 4.66732L9.34877 4.66667L9.33968 4.76065L9.35665 4.60279C9.53046 3.32152 10.6287 2.33398 11.9577 2.33398H16.041ZM16.3327 19.834H9.33268C8.84943 19.834 8.45768 20.2257 8.45768 20.709C8.45768 21.1922 8.84943 21.584 9.33268 21.584H16.3327C16.8159 21.584 17.2077 21.1922 17.2077 20.709C17.2077 20.2257 16.8159 19.834 16.3327 19.834ZM13.9993 15.1673H9.33268C8.84943 15.1673 8.45768 15.5591 8.45768 16.0423C8.45768 16.5256 8.84943 16.9173 9.33268 16.9173H13.9993C14.4826 16.9173 14.8743 16.5256 14.8743 16.0423C14.8743 15.5591 14.4826 15.1673 13.9993 15.1673ZM18.666 10.5007H9.33268C8.84943 10.5007 8.45768 10.8924 8.45768 11.3757C8.45768 11.8589 8.84943 12.2507 9.33268 12.2507H18.666C19.1493 12.2507 19.541 11.8589 19.541 11.3757C19.541 10.8924 19.1493 10.5007 18.666 10.5007Z" fill="#394046"/>
</svg>
