<svg width="28" height="29" viewBox="0 0 28 29" fill="none" xmlns="http://www.w3.org/2000/svg">
<path d="M16.041 2.83398C17.4304 2.83398 18.5676 3.91334 18.66 5.27926L18.666 5.45898C18.666 5.36017 18.6606 5.26264 18.6499 5.16667L20.7077 5.16732C22.1574 5.16732 23.3327 6.34257 23.3327 7.79232V23.5423C23.3327 24.9921 22.1574 26.1673 20.7077 26.1673H7.29102C5.84127 26.1673 4.66602 24.9921 4.66602 23.5423V7.79232C4.66602 6.34257 5.84127 5.16732 7.29102 5.16732L9.34877 5.16667C9.34124 5.23468 9.3363 5.30348 9.33406 5.37295L9.33268 5.45898C9.33268 4.00924 10.5079 2.83398 11.9577 2.83398H16.041ZM16.041 8.08398H11.9577C11.0313 8.08398 10.217 7.6041 9.74978 6.87936L9.77487 6.91755L7.29102 6.91732C6.80777 6.91732 6.41602 7.30907 6.41602 7.79232V23.5423C6.41602 24.0256 6.80777 24.4173 7.29102 24.4173H20.7077C21.1909 24.4173 21.5827 24.0256 21.5827 23.5423V7.79232C21.5827 7.30907 21.1909 6.91732 20.7077 6.91732L18.2238 6.91755L18.2489 6.87936C17.7817 7.6041 16.9674 8.08398 16.041 8.08398ZM16.041 4.58398H11.9577C11.4744 4.58398 11.0827 4.97574 11.0827 5.45898C11.0827 5.94223 11.4744 6.33398 11.9577 6.33398H16.041C16.5243 6.33398 16.916 5.94223 16.916 5.45898C16.916 4.97574 16.5243 4.58398 16.041 4.58398ZM9.33268 17.4173H13.9993C14.4826 17.4173 14.8743 17.0256 14.8743 16.5423C14.8743 16.0591 14.4826 15.6673 13.9993 15.6673H9.33268C8.84943 15.6673 8.45768 16.0591 8.45768 16.5423C8.45768 17.0256 8.84943 17.4173 9.33268 17.4173ZM9.33268 12.7507H18.666C19.1493 12.7507 19.541 12.3589 19.541 11.8757C19.541 11.3924 19.1493 11.0007 18.666 11.0007H9.33268C8.84943 11.0007 8.45768 11.3924 8.45768 11.8757C8.45768 12.3589 8.84943 12.7507 9.33268 12.7507ZM9.33268 22.084H16.3327C16.8159 22.084 17.2077 21.6922 17.2077 21.209C17.2077 20.7257 16.8159 20.334 16.3327 20.334H9.33268C8.84943 20.334 8.45768 20.7257 8.45768 21.209C8.45768 21.6922 8.84943 22.084 9.33268 22.084Z" fill="#394046"/>
</svg>
