<svg width="20" height="20" viewBox="0 0 20 20" fill="none" xmlns="http://www.w3.org/2000/svg">
<path d="M5.77004 3.16636C8.14317 1.7124 10.9426 1.57663 13.6972 2.99169C17.6728 5.03394 19.199 9.15377 17.8841 13.4272C17.4691 14.7761 16.6391 16.125 15.5126 17.0169C14.3731 17.9191 12.9092 18.3636 11.307 17.8158C10.2047 17.439 9.51761 16.8488 9.10359 16.1357C8.69968 15.4401 8.58432 14.6744 8.52971 14.0037C8.51434 13.8149 8.50249 13.6098 8.49139 13.4176C8.48376 13.2855 8.47648 13.1594 8.46865 13.0491C8.44764 12.7527 8.41952 12.5016 8.36784 12.2886C8.31659 12.0774 8.24789 11.9289 8.16209 11.8229C8.08158 11.7235 7.96658 11.637 7.77576 11.5787C7.25817 11.4205 6.90188 11.4534 6.62046 11.5426C6.37202 11.6214 6.17329 11.7421 5.9311 11.8892C5.86888 11.927 5.80379 11.9666 5.73426 12.0076C5.41801 12.1942 5.01372 12.404 4.49571 12.3784C3.98162 12.353 3.45055 12.1026 2.84036 11.6053C2.1698 11.0587 1.90562 10.2941 1.90234 9.49318C1.89912 8.70492 2.14539 7.85816 2.51602 7.05899C3.25328 5.46925 4.55906 3.9083 5.77004 3.16636ZM9.75 6.75C10.3023 6.75 10.75 6.30228 10.75 5.75C10.75 5.19772 10.3023 4.75 9.75 4.75C9.19771 4.75 8.75 5.19772 8.75 5.75C8.75 6.30228 9.19771 6.75 9.75 6.75ZM12.75 7.75C13.3023 7.75 13.75 7.30228 13.75 6.75C13.75 6.19772 13.3023 5.75 12.75 5.75C12.1977 5.75 11.75 6.19772 11.75 6.75C11.75 7.30228 12.1977 7.75 12.75 7.75ZM15.5 9C15.5 8.44771 15.0523 8 14.5 8C13.9477 8 13.5 8.44771 13.5 9C13.5 9.55229 13.9477 10 14.5 10C15.0523 10 15.5 9.55229 15.5 9ZM14.5 13C15.0523 13 15.5 12.5523 15.5 12C15.5 11.4477 15.0523 11 14.5 11C13.9477 11 13.5 11.4477 13.5 12C13.5 12.5523 13.9477 13 14.5 13ZM13.5 14C13.5 13.4477 13.0523 13 12.5 13C11.9477 13 11.5 13.4477 11.5 14C11.5 14.5523 11.9477 15 12.5 15C13.0523 15 13.5 14.5523 13.5 14Z" fill="currentColor"/>
</svg>
