<svg width="28" height="29" viewBox="0 0 28 29" fill="none" xmlns="http://www.w3.org/2000/svg">
<path d="M15 12.25C15 11.8358 15.3358 11.5 15.75 11.5H21.25C21.6642 11.5 22 11.8358 22 12.25C22 12.6642 21.6642 13 21.25 13H15.75C15.3358 13 15 12.6642 15 12.25ZM15.75 15.5C15.3358 15.5 15 15.8358 15 16.25C15 16.6642 15.3358 17 15.75 17H21.25C21.6642 17 22 16.6642 22 16.25C22 15.8358 21.6642 15.5 21.25 15.5H15.75ZM11.25 12.25C11.25 13.2165 10.4665 14 9.5 14C8.5335 14 7.75 13.2165 7.75 12.25C7.75 11.2835 8.5335 10.5 9.5 10.5C10.4665 10.5 11.25 11.2835 11.25 12.25ZM7 15H12C12.5523 15 13 15.4477 13 16V16.5C13 16.5 12.5 19 9.5 19C6.5 19 6 16.5 6 16.5V16C6 15.4477 6.44772 15 7 15ZM2.00391 7.25C2.00391 5.73122 3.23512 4.5 4.75391 4.5H23.2505C24.7693 4.5 26.0005 5.73122 26.0005 7.25V21.7501C26.0005 23.2688 24.7693 24.5001 23.2505 24.5001H4.75391C3.23513 24.5001 2.00391 23.2688 2.00391 21.7501V7.25ZM4.75391 6C4.06355 6 3.50391 6.55964 3.50391 7.25V21.7501C3.50391 22.4404 4.06355 23.0001 4.75391 23.0001H23.2505C23.9409 23.0001 24.5005 22.4404 24.5005 21.7501V7.25C24.5005 6.55965 23.9409 6 23.2505 6H4.75391Z" fill="#394046"/>
</svg>
