<svg width="28" height="29" viewBox="0 0 28 29" fill="none" xmlns="http://www.w3.org/2000/svg">
<path d="M12.5919 3.99507C13.4146 3.33498 14.5854 3.33498 15.4081 3.99507L23.1581 10.2134C23.6903 10.6404 24 11.286 24 11.9683V23.2487C24 24.4914 22.9926 25.4987 21.75 25.4987H18.75C17.5074 25.4987 16.5 24.4914 16.5 23.2487V17.2487C16.5 16.8345 16.1642 16.4987 15.75 16.4987H12.25C11.8358 16.4987 11.5 16.8345 11.5 17.2487V23.2487C11.5 24.4914 10.4926 25.4987 9.25 25.4987H6.25C5.00736 25.4987 4 24.4914 4 23.2487V11.9683C4 11.286 4.30967 10.6404 4.84191 10.2134L12.5919 3.99507ZM14.4694 5.16502C14.1951 4.94499 13.8049 4.94499 13.5306 5.16502L5.78064 11.3834C5.60322 11.5257 5.5 11.7409 5.5 11.9683V23.2487C5.5 23.6629 5.83579 23.9987 6.25 23.9987H9.25C9.66421 23.9987 10 23.6629 10 23.2487V17.2487C10 16.0061 11.0074 14.9987 12.25 14.9987H15.75C16.9926 14.9987 18 16.0061 18 17.2487V23.2487C18 23.6629 18.3358 23.9987 18.75 23.9987H21.75C22.1642 23.9987 22.5 23.6629 22.5 23.2487V11.9683C22.5 11.7409 22.3968 11.5257 22.2194 11.3834L14.4694 5.16502Z" fill="#394046"/>
</svg>
