<svg width="28" height="29" viewBox="0 0 28 29" fill="none" xmlns="http://www.w3.org/2000/svg">
<path d="M9.5 5.5C7.01472 5.5 5 7.51472 5 10C5 12.4853 7.01472 14.5 9.5 14.5C11.9853 14.5 14 12.4853 14 10C14 7.51472 11.9853 5.5 9.5 5.5ZM6.5 10C6.5 8.34315 7.84315 7 9.5 7C11.1569 7 12.5 8.34315 12.5 10C12.5 11.6569 11.1569 13 9.5 13C7.84315 13 6.5 11.6569 6.5 10ZM20 7.5C18.067 7.5 16.5 9.067 16.5 11C16.5 12.933 18.067 14.5 20 14.5C21.933 14.5 23.5 12.933 23.5 11C23.5 9.067 21.933 7.5 20 7.5ZM18 11C18 9.89543 18.8954 9 20 9C21.1046 9 22 9.89543 22 11C22 12.1046 21.1046 13 20 13C18.8954 13 18 12.1046 18 11ZM2 18.75C2 17.5074 3.00736 16.5 4.25 16.5H14.75C15.9926 16.5 17 17.5074 17 18.75L17 19.2524L17 19.2552L16.9999 19.2622L16.9996 19.281C16.9992 19.2958 16.9986 19.3149 16.9974 19.338C16.9951 19.3842 16.9907 19.4467 16.9825 19.5233C16.9662 19.6761 16.9343 19.8863 16.8721 20.135C16.748 20.6316 16.5005 21.291 16.0063 21.95C14.9918 23.3026 13.058 24.5 9.5 24.5C5.94201 24.5 4.00822 23.3026 2.99375 21.95C2.4995 21.291 2.252 20.6316 2.12786 20.135C2.06569 19.8863 2.03382 19.6761 2.01745 19.5233C2.00925 19.4467 2.00489 19.3842 2.00258 19.338C2.00143 19.3149 2.00078 19.2958 2.00043 19.281L2.00008 19.2622L2.00002 19.2552L2 19.2524L2 19.2512V18.75ZM3.5 19.2453L3.50071 19.2631C3.5017 19.2828 3.50393 19.3169 3.50892 19.3635C3.51891 19.4567 3.53978 19.598 3.58308 19.7712C3.66987 20.1184 3.84425 20.584 4.19375 21.05C4.86678 21.9474 6.30799 23 9.5 23C12.692 23 14.1332 21.9474 14.8063 21.05C15.1558 20.584 15.3301 20.1184 15.4169 19.7712C15.4602 19.598 15.4811 19.4567 15.4911 19.3635C15.4961 19.3169 15.4983 19.2828 15.4993 19.2631L15.5 19.2453V18.75C15.5 18.3358 15.1642 18 14.75 18H4.25C3.83579 18 3.5 18.3358 3.5 18.75V19.2453ZM17.0995 22.1202C17.8732 22.3574 18.8266 22.5 19.9985 22.5C22.7671 22.5 24.3163 21.7043 25.1567 20.7439C25.5683 20.2735 25.7792 19.7965 25.8865 19.4288C25.94 19.2453 25.9679 19.0886 25.9825 18.9719C25.9898 18.9135 25.9938 18.8648 25.996 18.8274C25.9971 18.8086 25.9977 18.7927 25.9981 18.7798L25.9984 18.7626L25.9985 18.7557L25.9985 18.7527L25.9985 18.7513C25.9985 18.7492 25.9985 18.75 25.9985 18.75C25.9985 17.5074 24.9912 16.5 23.7485 16.5H17.0938C17.4885 16.9113 17.7761 17.4263 17.9116 18H23.7485C24.1597 18 24.4936 18.3308 24.4985 18.7408C24.4981 18.7478 24.4969 18.7632 24.4941 18.7859C24.4882 18.8333 24.475 18.9109 24.4465 19.0087C24.3897 19.2035 24.2725 19.4765 24.0279 19.7561C23.5558 20.2957 22.48 21 19.9985 21C19.0568 21 18.3176 20.8986 17.7369 20.7432C17.6049 21.1574 17.4044 21.6321 17.0995 22.1202Z" fill="#394046"/>
</svg>
