<svg xmlns="http://www.w3.org/2000/svg">
    <symbol id="search" viewBox="0 0 23 23">
      <path
        fill="currentColor"
        d="M8.75 0a8.75 8.75 0 0 1 6.695 14.384l6.835 6.836a.75.75 0 0 1-.976 1.133l-.084-.073-6.836-6.835A8.75 8.75 0 1 1 8.75 0zm0 1.5a7.25 7.25 0 1 0 0 14.5 7.25 7.25 0 0 0 0-14.5z"
      />
    </symbol>
    <symbol id="straight" viewBox="0 0 16 16">
      <path
        fill="currentColor"
        d="M5 2.5c0 .51-.152.983-.414 1.379L6.62 5.914A2.496 2.496 0 0 1 8 5.5c.51 0 .983.152 1.379.414l2.035-2.035a2.5 2.5 0 1 1 .707.707L10.086 6.62c.262.396.414.87.414 1.379 0 .51-.152.983-.414 1.379l2.035 2.035a2.5 2.5 0 1 1-.707.707L9.38 10.086a2.49 2.49 0 0 1-1.379.414c-.51 0-.983-.152-1.379-.414L4.586 12.12a2.5 2.5 0 1 1-.707-.707L5.914 9.38A2.488 2.488 0 0 1 5.5 8c0-.51.152-.983.414-1.379L3.88 4.586A2.5 2.5 0 1 1 5 2.5z"
      />
    </symbol>
    <symbol id="challenging" viewBox="0 0 18 16">
      <path
        fill="currentColor"
        d="M10.5 2.5a2 2 0 1 1 2.612 1.905L14.707 6H16.5a1.5 1.5 0 0 1 0 3h-3.223c-.63 0-1.234-.25-1.68-.696l-.097-.097-1.043 1.043 1.397 1.396A.5.5 0 0 1 12 11v3.5a1.5 1.5 0 0 1-3 0v-1.793L7.453 11.16l-1.002.752a2.942 2.942 0 0 1-1.765.588H1.5a1.5 1.5 0 0 1 0-3h4.25A2.25 2.25 0 0 0 8 7.25V6h1a.5.5 0 0 0 0-1H7.5a.5.5 0 0 0-.5.5v1.75a1.25 1.25 0 1 1-2.5 0V5A2.5 2.5 0 0 1 7 2.5h3.5z"
      />
    </symbol>
    <symbol id="conservative" viewBox="0 0 16 16">
      <path
        fill="currentColor"
        d="M12.5 6c.546 0 1.059.146 1.5.401V5h-4v2.341A2.997 2.997 0 0 1 12.5 6zM8 11c0-.364.097-.706.268-1H5v4h3v-3zm1-2H5V5h4v4zM4 9V5H0v4h4zm-4 1h4v4H2.5A2.5 2.5 0 0 1 0 11.5V10zm10-6h4V2.5A2.5 2.5 0 0 0 11.5 0H10v4zM9 0v4H5V0h4zM4 0v4H0V2.5A2.5 2.5 0 0 1 2.5 0H4zm6.5 9v1H10a1 1 0 0 0-1 1v4a1 1 0 0 0 1 1h5a1 1 0 0 0 1-1v-4a1 1 0 0 0-1-1h-.5V9a2 2 0 1 0-4 0zm1 1V9a1 1 0 1 1 2 0v1h-2zm1 2.25a.75.75 0 1 1 0 1.5.75.75 0 0 1 0-1.5z"
      />
    </symbol>
    <symbol id="open" viewBox="0 0 16 16">
      <path
        fill="currentColor"
        d="M5 2.5c0 .51-.152.983-.414 1.379L6.62 5.914A2.496 2.496 0 0 1 8 5.5c.51 0 .983.152 1.379.414l2.035-2.035a2.5 2.5 0 1 1 .707.707L10.086 6.62c.262.396.414.87.414 1.379 0 .51-.152.983-.414 1.379l2.035 2.035a2.5 2.5 0 1 1-.707.707L9.38 10.086a2.49 2.49 0 0 1-1.379.414c-.51 0-.983-.152-1.379-.414L4.586 12.12a2.5 2.5 0 1 1-.707-.707L5.914 9.38A2.488 2.488 0 0 1 5.5 8c0-.51.152-.983.414-1.379L3.88 4.586A2.5 2.5 0 1 1 5 2.5z"
      />
    </symbol>
    <symbol id="conventional" viewBox="0 0 16 16">
      <path
        fill="currentColor"
        d="M5 3a3 3 0 1 1 3.5 2.96V7.5h3A1.5 1.5 0 0 1 13 9v1.041a3.001 3.001 0 1 1-1 0V9a.5.5 0 0 0-.5-.5h-7A.5.5 0 0 0 4 9v1.041a3.001 3.001 0 1 1-1 0V9a1.5 1.5 0 0 1 1.5-1.5h3V5.96A3.001 3.001 0 0 1 5 3z"
      />
    </symbol>
    <symbol id="compromising" viewBox="0 0 16 16">
      <path
        fill="currentColor"
        d="M0 1.5A1.5 1.5 0 0 1 1.5 0h2A1.5 1.5 0 0 1 5 1.5v2.043a1.5 1.5 0 0 1-1.5 1.5h-2a1.5 1.5 0 0 1-1.5-1.5V1.5zM6 2h5.5A1.5 1.5 0 0 1 13 3.5V7h-1V3.5a.5.5 0 0 0-.5-.5H6V2zM3 6v5.5a.5.5 0 0 0 .5.5H7v1H3.5A1.5 1.5 0 0 1 2 11.5V6h1zm6.504 2a1.5 1.5 0 0 0-1.5 1.5v5a1.5 1.5 0 0 0 1.5 1.5h5a1.5 1.5 0 0 0 1.5-1.5v-5a1.5 1.5 0 0 0-1.5-1.5h-5z"
      />
    </symbol>
    <symbol id="careful" viewBox="0 0 16 16">
      <path
        fill="currentColor"
        d="M15.603 5.519A7.999 7.999 0 1 1 10.486.393L9.438 1.44a1.5 1.5 0 0 0-.158.185 6.5 6.5 0 1 0 5.088 5.098 1.5 1.5 0 0 0 .192-.162l1.042-1.042zM12.898 7A5 5 0 1 1 9 3.1v1.546A3.5 3.5 0 1 0 11.353 7h1.545zm-4.9 2.5a1.5 1.5 0 0 0 1.45-1.887L11.03 6.03l.03-.03h2.44a.5.5 0 0 0 .354-.146l2-2A.5.5 0 0 0 15.5 3H13V.5a.5.5 0 0 0-.853-.354l-2 2A.5.5 0 0 0 10 2.5v2.44a.764.764 0 0 0-.03.03L8.388 6.55A1.502 1.502 0 0 0 6.498 8a1.5 1.5 0 0 0 1.5 1.5z"
      />
    </symbol>
    <symbol id="expedite" viewBox="0 0 15 12">
      <path
        fill="currentColor"
        d="M7.018 1.486A1 1 0 0 1 8.61.68l5.88 4.311a1.25 1.25 0 0 1 0 2.016L8.61 11.32a1 1 0 0 1-1.592-.806v-3.16L1.61 11.319a1 1 0 0 1-1.592-.806V1.486A1 1 0 0 1 1.61.68l5.408 3.966v-3.16z"
      />
    </symbol>
    <symbol id="intuitive" viewBox="0 0 12 16">
      <path
        fill="currentColor"
        d="M9.073 13l-.384 1.605c-.184.771-.865 1.33-1.67 1.39L6.874 16h-1.75c-.818 0-1.535-.516-1.776-1.261l-.038-.134L2.928 13h6.145zM6 0c3.314 0 6 2.597 6 5.8 0 1.677-.745 3.216-2.204 4.594a.6.6 0 0 0-.145.213l-.026.081L9.311 12h-2.81V7.497a.5.5 0 1 0-1 0V12H2.688l-.313-1.311a.595.595 0 0 0-.17-.295C.815 9.082.072 7.624.005 6.04L0 5.8l.003-.191C.108 2.494 2.753 0 6 0zm-.5 4.502v1.002a.5.5 0 0 0 1 0V4.502a.5.5 0 0 0-1 0zm3.35.941a.5.5 0 0 0-.707 0l-.708.709a.5.5 0 1 0 .707.707l.709-.709a.5.5 0 0 0 0-.707zm-4.998 0a.5.5 0 1 0-.707.707l.708.709a.5.5 0 1 0 .707-.707l-.708-.709z"
      />
    </symbol>
    <symbol id="statistic" viewBox="0 0 16 17">
      <path
        fill="currentColor"
        d="M13 9c0-.364.097-.706.268-1H8.5A1.5 1.5 0 0 1 7 6.5V.017a7.5 7.5 0 0 0 0 14.967V13a2 2 0 0 1 3-1.732V11a2 2 0 0 1 3-1.732V9zM8 .017V6.5a.5.5 0 0 0 .5.5h6.484A7.501 7.501 0 0 0 8 .017zM14 9a1 1 0 1 1 2 0v7a1 1 0 1 1-2 0V9zm-6 4a1 1 0 1 1 2 0v3a1 1 0 1 1-2 0v-3zm3-2a1 1 0 1 1 2 0v5a1 1 0 1 1-2 0v-5z"
      />
    </symbol>
    <symbol id="principle" viewBox="0 0 12 16">
      <path
        fill="currentColor"
        d="M5.61 6.005h.981l-.2 1H5.41l.2-1zM2 0a2 2 0 0 0-2 2v12a2 2 0 0 0 2 2h9.504a.5.5 0 1 0 0-1H2a1 1 0 0 1-1-.999h10.504a.5.5 0 0 0 .5-.5V2a2 2 0 0 0-2-2H2zm5.599 3.511a.5.5 0 0 1 .392.588l-.18.906h.94a.5.5 0 0 1 0 1h-1.14l-.2 1h1.09a.5.5 0 0 1 0 1H7.212l-.218 1.093a.5.5 0 1 1-.98-.196l.178-.897H5.21l-.22 1.093a.5.5 0 1 1-.98-.196l.18-.897h-.938a.5.5 0 0 1 0-1H4.39l.2-1H3.5a.5.5 0 0 1 0-1h1.29l.221-1.102a.5.5 0 0 1 .98.197l-.18.905h.98l.22-1.101a.5.5 0 0 1 .588-.393z"
      />
    </symbol>
    <symbol id="arrow_left" viewBox="0 0 11 20">
      <path
        fill="currentColor"
        d="M10.727 1.687A1 1 0 1 0 9.273.313l-8.5 9a1 1 0 0 0 0 1.374l8.5 9.001a1 1 0 1 0 1.454-1.373L2.875 10l7.852-8.313z"
      />
    </symbol>
    <symbol id="arrow_right" viewBox="0 0 6 11">
    <path fill="currentColor" d="M.22 1.28A.75.75 0 1 1 1.28.22l4.5 4.5a.75.75 0 0 1 0 1.06l-4.5 4.5A.75.75 0 1 1 .22 9.22l3.97-3.97L.22 1.28z"/></symbol>
    <symbol id="arrow_down" viewBox="0 0 16 8">
    <path fill="currentColor" d="M14.954.28a.9.9 0 0 1-.031 1.272l-6.3 6.001a.9.9 0 0 1-1.242 0L1.08 1.552A.9.9 0 0 1 2.322.248l5.68 5.41 5.68-5.41a.9.9 0 0 1 1.272.031z"/>
    </symbol>
    <symbol id="before_concern" viewBox="0 0 17 17">
      <path
        fill="currentColor"
        d="M9.497 1.408A1.5 1.5 0 0 0 7.447.106L1.579 2.43A2.5 2.5 0 0 0 0 4.755v5.742a1.5 1.5 0 0 0 2 1.415V5.906a2.25 2.25 0 0 1 1.421-2.092l6.076-2.406zM12.499 3.5a1.5 1.5 0 0 0-2.052-1.394l-6.183 2.45A2 2 0 0 0 3 6.416v6.082a1.5 1.5 0 0 0 2.053 1.394L6 13.517v-5.98a2 2 0 0 1 1.264-1.86l5.235-2.073V3.5zm1.449.605A1.5 1.5 0 0 1 16 5.5v2.841a3 3 0 1 0-4.727 3.67A2.5 2.5 0 0 0 9 14.5c0 .443.089.889.274 1.307l-.222.088A1.5 1.5 0 0 1 7 14.5V7.877a1.5 1.5 0 0 1 .948-1.395l6-2.376zM15.5 10a2 2 0 1 1-4 0 2 2 0 0 1 4 0zm1.5 4.5c0 1.245-1 2.5-3.5 2.5S10 15.75 10 14.5a1.5 1.5 0 0 1 1.5-1.5h4a1.5 1.5 0 0 1 1.5 1.5z"
      />
    </symbol>
    <symbol id="after_concern" viewBox="0 0 17 17">
      <path
        fill="currentColor"
        d="M17 4.5a4.5 4.5 0 1 1-9 0 4.5 4.5 0 0 1 9 0zm-4-2a.5.5 0 0 0-1 0V4h-1.5a.5.5 0 0 0 0 1H12v1.5a.5.5 0 0 0 1 0V5h1.5a.5.5 0 0 0 0-1H13V2.5zm-.5 7.5c1.33 0 2.55-.472 3.5-1.257v2.533c0 1.418-1.164 2.566-2.6 2.566H8.81l-4.011 2.961a1.009 1.009 0 0 1-1.4-.199.978.978 0 0 1-.199-.59v-2.172h-.6c-1.436 0-2.6-1.149-2.6-2.566v-6.71C0 3.149 1.164 2 2.6 2h5a5.5 5.5 0 0 0 4.9 8z"
      />
    </symbol>
    <symbol id="sincere" viewBox="0 0 16 16">
      <path
        fill="currentColor"
        d="M8 0a8 8 0 1 1-3.613 15.14l-.121-.065-3.645.91a.5.5 0 0 1-.62-.441v-.082l.014-.083.91-3.644-.063-.12a7.95 7.95 0 0 1-.83-2.887l-.025-.382L0 8a8 8 0 0 1 8-8zm.5 9h-3l-.09.008a.5.5 0 0 0 0 .984L5.5 10h3l.09-.008a.5.5 0 0 0 0-.984L8.5 9zm2-3h-5l-.09.008a.5.5 0 0 0 0 .984L5.5 7h5l.09-.008a.5.5 0 0 0 0-.984L10.5 6z"
      />
    </symbol>
    <symbol id="subjective" viewBox="0 0 16 16">
      <path
        fill="currentColor"
        d="M4.13.793A3.91 3.91 0 0 1 6.5 0c.24 0 .431.125.542.211.124.098.24.223.344.348A.5.5 0 0 1 7.5.877V4.5H6.415a1.5 1.5 0 1 0 0 1H7.5v9.415a.5.5 0 0 1-.183.387C6.855 15.68 6.237 16 5.5 16c-1.186 0-2.069-.598-2.64-1.313a4.057 4.057 0 0 1-.819-1.752 2.68 2.68 0 0 1-1.054-.555C.435 11.907 0 11.14 0 10c0-.557.037-1.06.12-1.5h3.13c.636 0 1.16.475 1.24 1.089a1.5 1.5 0 1 0 1.004-.006A2.25 2.25 0 0 0 3.25 7.5H.441c.153-.298.358-.55.625-.729a1.58 1.58 0 0 1 .212-.118c-.284-.832-.21-1.806.064-2.571.175-.492.453-.957.835-1.267.252-.205.552-.34.88-.366C3.2 1.766 3.606 1.2 4.13.793zM8.5 12.5h.75a2.25 2.25 0 0 0 2.25-2.25V8.415a1.5 1.5 0 1 0-1 0v1.835c0 .69-.56 1.25-1.25 1.25H8.5V.877a.5.5 0 0 1 .114-.318c.103-.125.22-.25.344-.348C9.068.125 9.26 0 9.5 0a3.91 3.91 0 0 1 2.37.793c.525.408.93.973 1.073 1.656.328.025.628.161.88.366.382.31.66.775.835 1.267.274.765.348 1.74.064 2.57.072.034.143.074.212.12.275.183.484.445.638.754.303.605.428 1.448.428 2.474 0 1.141-.435 1.907-.987 2.38a2.68 2.68 0 0 1-1.054.555c-.1.558-.38 1.204-.819 1.752-.57.715-1.454 1.313-2.64 1.313-.736 0-1.355-.32-1.817-.698a.5.5 0 0 1-.183-.387V12.5zM5 4.5a.5.5 0 1 0 0 1 .5.5 0 0 0 0-1zm0 6a.5.5 0 1 0 0 1 .5.5 0 0 0 0-1zm6-3a.5.5 0 1 0 0-1 .5.5 0 0 0 0 1z"
      />
    </symbol>
    <symbol id="receptive" viewBox="0 0 17 16">
      <path
        fill="currentColor"
        d="M8 1.5a6.5 6.5 0 0 0-4.601 11.091.75.75 0 1 1-1.062 1.06A8 8 0 1 1 15.97 7.296a3.004 3.004 0 0 0-1.756-1.21A6.503 6.503 0 0 0 8 1.5zm4.637 4.626A5.002 5.002 0 0 0 3 8c0 1.377.558 2.626 1.458 3.53a.75.75 0 0 0 1.063-1.06 3.5 3.5 0 1 1 5.811-3.544 3 3 0 0 1 1.305-.8zM6 8a2 2 0 1 1 4 0 2 2 0 0 1-4 0zm9.5 1a2 2 0 1 1-4 0 2 2 0 0 1 4 0zm1.5 4.5c0 1.245-1 2.5-3.5 2.5S10 14.75 10 13.5a1.5 1.5 0 0 1 1.5-1.5h4a1.5 1.5 0 0 1 1.5 1.5z"
      />
    </symbol>
    <symbol id="objective" viewBox="0 0 16 17">
      <path
        fill="currentColor"
        d="M0 6a6 6 0 1 1 2.996 5.195l-2.338.78a.5.5 0 0 1-.639-.612l.712-2.491A5.975 5.975 0 0 1 0 6zm4.5-1.5a.5.5 0 0 0 0 1h3a.5.5 0 0 0 0-1h-3zm2 2h-2a.5.5 0 0 0 0 1h2a.5.5 0 0 0 0-1z"
      />
      <path
        fill="currentColor"
        d="M10.276 13.947l-2.402-1.2c.44-.123.863-.287 1.263-.488l1.363.682 4.5-2.25V10a1 1 0 0 0-1-1h-1.674c.153-.32.281-.655.384-1H14a2 2 0 0 1 2 2v5a2 2 0 0 1-2 2H7a2 2 0 0 1-2-2v-2.07c.327.046.66.07 1 .07v2a1 1 0 0 0 1 1h7a1 1 0 0 0 1-1v-3.191l-4.276 2.138a.5.5 0 0 1-.448 0z"
      />
    </symbol>
    <symbol id="firm" viewBox="0 0 17 17">
      <path
        fill="currentColor"
        d="M4.5 0a2.5 2.5 0 0 0-2.456 2.03c.15-.02.302-.03.456-.03h8A3.5 3.5 0 0 1 14 5.5v1.707c.742.21 1.421.572 2 1.05V4a4 4 0 0 0-4-4H4.5zM13 5.5v1.522A5.5 5.5 0 0 0 7.207 14H7.16l-2.579 1.842A1 1 0 0 1 3 15.028V14h-.5A2.5 2.5 0 0 1 0 11.5v-6A2.5 2.5 0 0 1 2.5 3h8A2.5 2.5 0 0 1 13 5.5zm4 7a4.5 4.5 0 1 0-9 0 4.5 4.5 0 0 0 9 0zm-2.146-1.854a.5.5 0 0 1 0 .708l-3 3a.5.5 0 0 1-.708 0l-1-1a.5.5 0 0 1 .708-.708l.646.647 2.646-2.647a.5.5 0 0 1 .708 0z"
      />
    </symbol>
    <symbol id="indirect" viewBox="0 0 16 16">
      <path
        fill="currentColor"
        d="M4.03.47a.75.75 0 0 1 0 1.06L2.81 2.75H9A6.25 6.25 0 1 1 2.75 9a.75.75 0 0 1 1.5 0A4.75 4.75 0 1 0 9 4.25H2.81l1.22 1.22a.75.75 0 0 1-1.06 1.06l-2.5-2.5a.75.75 0 0 1 0-1.06l2.5-2.5a.75.75 0 0 1 1.06 0z"
      />
    </symbol>
    <symbol id="flexible" viewBox="0 0 17 18">
      <path
        fill="currentColor"
        d="M11.25 1.5A5.75 5.75 0 0 0 5.5 7.25v1a2.25 2.25 0 0 1-2.25 2.25H.75a.75.75 0 0 1 0-1.5h2.5A.75.75 0 0 0 4 8.25v-1A7.25 7.25 0 0 1 11.25 0h.5a.75.75 0 0 1 0 1.5h-.5zm-2.75 6a3.25 3.25 0 0 1 3.25-3.25h3.5a.75.75 0 0 0 0-1.5h-3.5A4.75 4.75 0 0 0 7 7.5v1a3.25 3.25 0 0 1-3.25 3.25h-3a.75.75 0 0 0 0 1.5h3A4.75 4.75 0 0 0 8.5 8.5v-1zm3.75-.5a.75.75 0 0 0-.75.75v1a7.26 7.26 0 0 1-.253 1.904 1.898 1.898 0 0 0-1.584.041A5.74 5.74 0 0 0 10 8.75v-1a2.25 2.25 0 0 1 2.25-2.25h3a.75.75 0 0 1 0 1.5h-3zm-1.396 9.162a.5.5 0 0 1-.708.707l-2-2a.5.5 0 0 1 0-.707l2-2a.5.5 0 0 1 .708.707l-1.147 1.147h5.586l-1.147-1.147a.5.5 0 0 1 .708-.707l2 2a.5.5 0 0 1 0 .707l-2 2a.5.5 0 0 1-.708-.707l1.147-1.146H9.707l1.147 1.146z"
      />
    </symbol>
    <symbol id="generous" viewBox="0 0 18 17">
      <path
        fill="currentColor"
        d="M4.77 1.166C7.143-.288 9.943-.424 12.697.992c3.976 2.042 5.502 6.162 4.187 10.435-.415 1.35-1.245 2.698-2.371 3.59-1.14.902-2.604 1.347-4.206.799-1.102-.377-1.79-.967-2.203-1.68-.404-.696-.52-1.462-.574-2.132a25.653 25.653 0 0 1-.039-.586l-.022-.369a4.723 4.723 0 0 0-.101-.76 1.163 1.163 0 0 0-.206-.466.75.75 0 0 0-.386-.244c-.518-.158-.874-.126-1.156-.036-.248.078-.447.2-.689.346-.062.038-.127.078-.197.119-.316.186-.72.396-1.238.37-.514-.025-1.045-.275-1.656-.773-.67-.546-.934-1.31-.938-2.112-.003-.788.243-1.635.614-2.434.737-1.59 2.043-3.15 3.254-3.893zM8.75 4.75a1 1 0 1 0 0-2 1 1 0 0 0 0 2zm3 1a1 1 0 1 0 0-2 1 1 0 0 0 0 2zM14.5 7a1 1 0 1 0-2 0 1 1 0 0 0 2 0zm-1 4a1 1 0 1 0 0-2 1 1 0 0 0 0 2zm-1 1a1 1 0 1 0-2 0 1 1 0 0 0 2 0z"
      />
    </symbol>
    <symbol id="planned" viewBox="0 0 14 14">
      <path
        fill="currentColor"
        d="M2.5 0A2.5 2.5 0 0 0 0 2.5V3h14v-.5A2.5 2.5 0 0 0 11.5 0h-9zM14 4H0v7.5A2.5 2.5 0 0 0 2.5 14h9a2.5 2.5 0 0 0 2.5-2.5V4zM5 7a1 1 0 1 1-2 0 1 1 0 0 1 2 0zm-1 4a1 1 0 1 1 0-2 1 1 0 0 1 0 2zm4-4a1 1 0 1 1-2 0 1 1 0 0 1 2 0zm-1 4a1 1 0 1 1 0-2 1 1 0 0 1 0 2zm4-4a1 1 0 1 1-2 0 1 1 0 0 1 2 0z"
      />
    </symbol>
    <symbol id="tree" viewBox="0 0 14 16">
      <path
        fill="currentColor"
        d="M7.62.211a1 1 0 0 0-1.238 0l-3.308 2.61c-.805.635-.707 1.743-.058 2.314L1.552 6.342c-.963.794-.573 2.271.51 2.594L.476 10.422c-.986.923-.332 2.577 1.019 2.577H5v1.75c0 .69.56 1.25 1.25 1.25h1.5C8.44 16 9 15.44 9 14.75V13h3.504c1.351 0 2.005-1.655 1.018-2.578l-1.587-1.484c1.086-.32 1.478-1.8.513-2.595l-1.462-1.206c.649-.571.747-1.68-.057-2.314L7.62.212zM6 13h2v1.75a.25.25 0 0 1-.25.25h-1.5a.25.25 0 0 1-.25-.25V13z"
      />
    </symbol>
    <symbol id="forest" viewBox="0 0 14 14">
      <path
        fill="currentColor"
        d="M0 3.25A3.25 3.25 0 0 1 3.25 0h1a.75.75 0 0 1 0 1.5h-1A1.75 1.75 0 0 0 1.5 3.25v1a.75.75 0 0 1-1.5 0v-1zm14 7.5A3.25 3.25 0 0 1 10.75 14h-1a.75.75 0 0 1 0-1.5h1a1.75 1.75 0 0 0 1.75-1.75v-1a.75.75 0 0 1 1.5 0v1zm0-7.5A3.25 3.25 0 0 0 10.75 0h-1a.75.75 0 0 0 0 1.5h1c.966 0 1.75.784 1.75 1.75v1a.75.75 0 0 0 1.5 0v-1zM3.25 14A3.25 3.25 0 0 1 0 10.75v-1a.75.75 0 0 1 1.5 0v1c0 .966.784 1.75 1.75 1.75h1a.75.75 0 0 1 0 1.5h-1zM7 9a2 2 0 1 0 0-4 2 2 0 0 0 0 4zM4 5a1 1 0 1 0 0-2 1 1 0 0 0 0 2z"
      />
    </symbol>
    <symbol id="optimistic" viewBox="0 0 17 17">
      <path
        fill="currentColor"
        d="M11.392 9.515L8.041 5.85a.606.606 0 0 1-.868.01L3.28 1.97a.75.75 0 1 0-1.06 1.06l3.864 3.864a.576.576 0 1 1-.815.815L1.28 3.719A.75.75 0 0 0 .22 4.78l4.052 4.053a.487.487 0 0 1-.689.69L1.28 7.22A.75.75 0 0 0 .22 8.28l3.822 3.822a6.178 6.178 0 0 0-.506.115c-.78.213-1.776.657-2.371 1.607-.254.405-.185.85.054 1.165.227.296.6.478.998.475 2.154-.016 4.77.381 6.853 1.236 1.197.492 2.688.426 3.714-.52l1.25-1.155a3 3 0 0 0 .761-3.296l-.961-2.462-.228.248a1.5 1.5 0 0 1-2.214 0zm-3.669 3.431a.5.5 0 0 1-.446-.894c.603-.3 1.46-.436 2.305-.295.856.143 1.742.577 2.334 1.466a.5.5 0 0 1-.832.554c-.408-.611-1.022-.926-1.666-1.034-.656-.109-1.298.005-1.695.204zm-.385-11.03a3.396 3.396 0 0 0-.29 2.048L5.22 2.03A.75.75 0 1 1 6.28.97c.286.286.652.604 1.058.947zm5.161.087l-.628-.493a2.394 2.394 0 0 0-3.244 3.5l3.503 3.83a.5.5 0 0 0 .738 0l3.504-3.83a2.394 2.394 0 0 0-3.244-3.5l-.629.493z"
      />
    </symbol>
    <symbol id="critical" viewBox="0 0 17 17">
      <path
        fill="currentColor"
        d="M17 4.5a4.5 4.5 0 1 1-9 0 4.5 4.5 0 0 1 9 0zM12.5 2a.5.5 0 0 0-.5.5v2a.5.5 0 0 0 1 0v-2a.5.5 0 0 0-.5-.5zm0 5.125a.625.625 0 1 0 0-1.25.625.625 0 0 0 0 1.25zM16 8.743A5.5 5.5 0 0 1 7.6 2h-5C1.164 2 0 3.149 0 4.566v6.71c0 1.418 1.164 2.566 2.6 2.566h.6v2.171c0 .213.07.42.2.591.33.437.957.526 1.399.2l4.011-2.962h4.59c1.436 0 2.6-1.149 2.6-2.566V8.743z"
      />
    </symbol>
    <symbol id="relaxed" viewBox="0 0 16 16">
      <path
        fill="currentColor"
        d="M8 0a8 8 0 1 1 0 16A8 8 0 0 1 8 0zm-.5 3a.5.5 0 0 0-.5.5v5l.008.09A.5.5 0 0 0 7.5 9h3l.09-.008A.5.5 0 0 0 10.5 8H8V3.5l-.008-.09A.5.5 0 0 0 7.5 3z"
      />
    </symbol>
    <symbol id="systematic" viewBox="0 0 14 16">
      <path
        fill="currentColor"
        d="M8 4.5V0H3.5A1.5 1.5 0 0 0 2 1.5V9h5.5a1.5 1.5 0 1 1 0 3H2v2.5A1.5 1.5 0 0 0 3.5 16h9a1.5 1.5 0 0 0 1.5-1.5V6H9.5A1.5 1.5 0 0 1 8 4.5zm-4 3a.5.5 0 0 1 .5-.5h7a.5.5 0 0 1 0 1h-7a.5.5 0 0 1-.5-.5zm0 6a.5.5 0 0 1 .5-.5h7a.5.5 0 0 1 0 1h-7a.5.5 0 0 1-.5-.5zm5-9V.25L13.75 5H9.5a.5.5 0 0 1-.5-.5zM.5 10a.5.5 0 0 0 0 1h7a.5.5 0 0 0 0-1h-7z"
      />
    </symbol>
    <symbol id="voluntarily" viewBox="0 0 14 14">
      <path
        fill="currentColor"
        d="M4.738 13.445A2.986 2.986 0 0 1 3 14 3 3 0 0 1 .555 9.262l4.183 4.183zm5.902-5.358L8.41 9.24a.749.749 0 0 0-.41.664v2.194a.75.75 0 0 0 .41.664l2.23 1.152a.786.786 0 0 0 .72 0l2.23-1.152a.75.75 0 0 0 .41-.664V9.903a.75.75 0 0 0-.41-.664l-2.23-1.152a.787.787 0 0 0-.72 0zm-5.195 4.651A2.987 2.987 0 0 0 6 11a3 3 0 0 0-4.738-2.445l4.183 4.183zM10 0a2 2 0 0 0-2 2v2a2 2 0 0 0 2 2h2a2 2 0 0 0 2-2V2a2 2 0 0 0-2-2h-2zM1.913.674a1.214 1.214 0 0 1 2.174 0l1.78 3.537C6.277 5.03 5.688 6 4.778 6H1.22C.31 6-.28 5.03.133 4.21L1.913.675z"
      />
    </symbol>
    <symbol id="confident" viewBox="0 0 18 16">
      <path
        fill="currentColor"
        d="M8.104.899a1 1 0 0 1 1.794 0l1.93 3.911 4.317.627a1 1 0 0 1 .554 1.706l-3.124 3.045.738 4.299a1 1 0 0 1-1.451 1.054l-3.86-2.03-3.862 2.03a1 1 0 0 1-1.45-1.054l.737-4.3-3.124-3.044a1 1 0 0 1 .554-1.706l4.317-.627L8.104.9zM3.39 10.687a.5.5 0 0 1-.078.703l-2.5 2a.5.5 0 1 1-.624-.78l2.5-2a.5.5 0 0 1 .702.078zM3.312 3.11a.5.5 0 0 1-.624.781l-2.5-2a.5.5 0 1 1 .624-.78l2.5 2zm11.298 7.579a.5.5 0 0 0 .078.702l2.5 2a.5.5 0 1 0 .624-.78l-2.5-2a.5.5 0 0 0-.702.078zm.078-7.579a.5.5 0 0 0 .624.781l2.5-2a.5.5 0 1 0-.624-.78l-2.5 2z"
      />
    </symbol>
    <symbol id="humble" viewBox="0 0 16 14">
      <path
        fill="currentColor"
        d="M1.5 8a6.5 6.5 0 1 1 11.101 4.591.75.75 0 1 0 1.062 1.06 8 8 0 1 0-11.326 0A.75.75 0 0 0 3.4 12.59 6.477 6.477 0 0 1 1.5 8zm3 0a3.5 3.5 0 1 1 5.98 2.47.75.75 0 1 0 1.062 1.06 5 5 0 1 0-7.083 0 .75.75 0 0 0 1.062-1.06A3.487 3.487 0 0 1 4.5 8zM8 6a2 2 0 1 0 0 4 2 2 0 0 0 0-4z"
      />
    </symbol>
    <symbol id="passionate" viewBox="0 0 12 16">
      <path
        fill="currentColor"
        d="M0 9.75c0-.536.063-1.065.188-1.586a5.81 5.81 0 0 1 .585-1.492 8.87 8.87 0 0 0 .125-.227c.042-.078.092-.15.149-.218a.652.652 0 0 1 .18-.165.508.508 0 0 1 .484 0 .44.44 0 0 1 .18.172L2.93 7.93a.49.49 0 0 0 .187.18.627.627 0 0 0 .266.07.49.49 0 0 0 .414-.196.757.757 0 0 0 .133-.64 1.218 1.218 0 0 0-.07-.188 10.424 10.424 0 0 1-.524-1.351 4.92 4.92 0 0 1-.203-1.446c0-.656.11-1.231.328-1.726.219-.495.523-.92.914-1.274.39-.354.846-.64 1.367-.859A8.088 8.088 0 0 1 7.414.008a.486.486 0 0 1 .406.11C7.94.22 8 .348 8 .5c0 .781.133 1.526.398 2.234A7.871 7.871 0 0 0 9.5 4.727l.867 1.132c.292.38.56.776.805 1.188.245.411.443.838.594 1.281.15.443.229.917.234 1.422 0 .557-.068 1.099-.203 1.625a6.145 6.145 0 0 1-.594 1.484c-.26.464-.568.886-.922 1.266a6.01 6.01 0 0 1-1.203.992c-.448.281-.93.498-1.445.649A6.01 6.01 0 0 1 6 16a5.778 5.778 0 0 1-1.633-.227 5.603 5.603 0 0 1-1.437-.648 6.502 6.502 0 0 1-1.211-.992 5.72 5.72 0 0 1-.922-1.274 7.048 7.048 0 0 1-.586-1.484A6.207 6.207 0 0 1 0 9.75z"
      />
    </symbol>
    <symbol id="leader" viewBox="0 0 12 16">
      <path
        fill="currentColor"
        d="M12 6A6 6 0 1 1 0 6a6 6 0 0 1 12 0zM5.847 3.102L5.13 4.655a.175.175 0 0 1-.138.1l-1.698.202a.175.175 0 0 0-.099.302L4.451 6.42a.175.175 0 0 1 .053.163L4.17 8.26c-.03.147.126.26.257.187l1.492-.835a.175.175 0 0 1 .171 0l1.492.835c.13.073.287-.04.258-.187l-.334-1.677a.175.175 0 0 1 .053-.163l1.257-1.16a.175.175 0 0 0-.099-.302L7.02 4.755a.175.175 0 0 1-.138-.1l-.717-1.553a.175.175 0 0 0-.317 0zM6 13a6.968 6.968 0 0 0 4-1.255V15.5a.5.5 0 0 1-.79.407L6 14l-3.21 1.907A.5.5 0 0 1 2 15.5v-3.755A6.968 6.968 0 0 0 6 13z"
      />
    </symbol>
    <symbol id="follower" viewBox="0 0 15 14">
      <path
        fill="currentColor"
        d="M5.75 2.25a2.25 2.25 0 1 1-4.5 0 2.25 2.25 0 0 1 4.5 0zM1 5a1 1 0 0 0-1 1v4.5a3.5 3.5 0 1 0 7 0V6a1 1 0 0 0-1-1H1zm5.75-2.75c0 .65-.19 1.255-.52 1.763.413.048.787.22 1.084.48A2.25 2.25 0 1 0 6.187.422c.355.52.563 1.15.563 1.827zM6.5 13.855A4.489 4.489 0 0 0 8 10.5V6a1.99 1.99 0 0 0-.268-1H10a1 1 0 0 1 1 1v4.5a3.5 3.5 0 0 1-4.5 3.355zM10.75 2.25c0 .65-.19 1.255-.52 1.763.413.048.787.22 1.084.48a2.25 2.25 0 1 0-1.127-4.07c.355.52.563 1.15.563 1.827zm-.25 11.605A4.489 4.489 0 0 0 12 10.5V6c0-.364-.098-.706-.268-1H14a1 1 0 0 1 1 1v4.5a3.5 3.5 0 0 1-4.5 3.355z"
      />
    </symbol>
    <symbol id="result" viewBox="0 0 15 16">
      <path
        fill="currentColor"
        d="M11 .75a.75.75 0 0 1 .75-.75h2.5a.75.75 0 0 1 .75.75v2.5a.75.75 0 0 1-1.5 0v-.69L9.03 7.03a.75.75 0 0 1-1.06 0L5.5 4.56 1.28 8.78A.75.75 0 0 1 .22 7.72l4.75-4.75a.75.75 0 0 1 1.06 0L8.5 5.44l3.94-3.94h-.69A.75.75 0 0 1 11 .75zM.75 12a.75.75 0 0 1 .75.75v2.5a.75.75 0 0 1-1.5 0v-2.5A.75.75 0 0 1 .75 12zM5.5 9.75a.75.75 0 0 0-1.5 0v5.5a.75.75 0 0 0 1.5 0v-5.5zM8.75 11a.75.75 0 0 1 .75.75v3.5a.75.75 0 0 1-1.5 0v-3.5a.75.75 0 0 1 .75-.75zm4.75-3.25a.75.75 0 0 0-1.5 0v7.5a.75.75 0 0 0 1.5 0v-7.5z"
      />
    </symbol>
    <symbol id="check" viewBox="0 0 12 9">
      <path
        fill="currentColor"
        d="M11.614.157a.5.5 0 0 1-.021.707l-7.93 7.474a.6.6 0 0 1-.839-.016l-2.68-2.72A.5.5 0 1 1 .856 4.9l2.406 2.442L10.907.136a.5.5 0 0 1 .707.021z"
      />
    </symbol>
    <symbol id="calendar" viewBox="0 0 18 18">
    <path fill="currentColor" d="M14.75 0A3.25 3.25 0 0 1 18 3.25v11.5A3.25 3.25 0 0 1 14.75 18H3.25A3.25 3.25 0 0 1 0 14.75V3.25A3.25 3.25 0 0 1 3.25 0h11.5zm1.75 5.5h-15v9.25c0 .966.784 1.75 1.75 1.75h11.5a1.75 1.75 0 0 0 1.75-1.75V5.5zm-11.75 6a1.25 1.25 0 1 1 0 2.5 1.25 1.25 0 0 1 0-2.5zm4.25 0A1.25 1.25 0 1 1 9 14a1.25 1.25 0 0 1 0-2.5zm-4.25-4a1.25 1.25 0 1 1 0 2.5 1.25 1.25 0 0 1 0-2.5zM9 7.5A1.25 1.25 0 1 1 9 10a1.25 1.25 0 0 1 0-2.5zm4.25 0a1.25 1.25 0 1 1 0 2.5 1.25 1.25 0 0 1 0-2.5zm1.5-6H3.25A1.75 1.75 0 0 0 1.5 3.25V4h15v-.75a1.75 1.75 0 0 0-1.75-1.75z"/>
    </symbol>
    <symbol id="home" viewBox="0 0 20 22">
      <path
        fill="currentColor"
        d="M8.592.495a2.25 2.25 0 0 1 2.816 0l7.75 6.218A2.25 2.25 0 0 1 20 8.468v11.28a2.25 2.25 0 0 1-2.25 2.25h-3a2.25 2.25 0 0 1-2.25-2.25v-6a.75.75 0 0 0-.75-.75h-3.5a.75.75 0 0 0-.75.75v6a2.25 2.25 0 0 1-2.25 2.25h-3A2.25 2.25 0 0 1 0 19.749V8.469c0-.682.31-1.328.842-1.755L8.592.495zm1.877 1.17a.75.75 0 0 0-.938 0L1.78 7.883a.75.75 0 0 0-.281.585v11.28c0 .415.336.75.75.75h3a.75.75 0 0 0 .75-.75v-6a2.25 2.25 0 0 1 2.25-2.25h3.5a2.25 2.25 0 0 1 2.25 2.25v6c0 .415.336.75.75.75h3a.75.75 0 0 0 .75-.75V8.469a.75.75 0 0 0-.28-.585l-7.75-6.218z"
      />
    </symbol>
    <symbol id="add_person" viewBox="0 0 25 25">
      <path
        fill="currentColor"
        d="M13.114 23.719a7.533 7.533 0 0 1-1.04-1.35c-.655.085-1.348.131-2.074.131-5.111 0-8.5-2.111-8.5-4.785V17l.007-.145A1.5 1.5 0 0 1 3 15.5h8.624A7.486 7.486 0 0 1 12.5 14H3a3 3 0 0 0-3 3v.715C0 21.433 4.21 24 10 24a16.81 16.81 0 0 0 3.114-.281zM16 6A6 6 0 1 0 4 6a6 6 0 0 0 12 0zM5.5 6a4.5 4.5 0 1 1 9 0 4.5 4.5 0 0 1-9 0zm13 19a6.5 6.5 0 1 0 0-13 6.5 6.5 0 0 0 0 13zm0-11a.5.5 0 0 1 .5.5V18h3.5a.5.5 0 0 1 0 1H19v3.5a.5.5 0 0 1-1 0V19h-3.5a.5.5 0 0 1 0-1H18v-3.5a.5.5 0 0 1 .5-.5z"
      />
    </symbol>
    <symbol id="alert_focus" viewBox="0 0 20 22">
      <path
        fill="currentColor"
        d="M13.471 19.002a3.502 3.502 0 0 1-6.931 0h6.931zM10.006 0a8.501 8.501 0 0 1 8.497 8.246v.255h.004v4.112l1.414 3.644c.038.099.064.201.076.306l.01.157a1.28 1.28 0 0 1-1.149 1.274l-.13.006H1.28a1.28 1.28 0 0 1-1.234-1.62l.041-.124 1.417-3.644v-4.11A8.501 8.501 0 0 1 10.006 0z"
      />
    </symbol>
    <symbol id="home_focus" viewBox="0 0 20 22">
      <path
        fill="currentColor"
        d="M11.408.495a2.25 2.25 0 0 0-2.816 0L.842 6.712A2.25 2.25 0 0 0 0 8.467v11.28a2.25 2.25 0 0 0 2.25 2.25h2.5A2.25 2.25 0 0 0 7 19.747v-5.5c0-.69.56-1.25 1.25-1.25h3.5c.69 0 1.25.56 1.25 1.25v5.5a2.25 2.25 0 0 0 2.25 2.25h2.5a2.25 2.25 0 0 0 2.25-2.25V8.467a2.25 2.25 0 0 0-.842-1.755L11.408.495z"
      />
    </symbol>
    <symbol id="mypage" viewBox="0 0 24 20">
      <path
        fill="currentColor"
        d="M12.996 7.75a.75.75 0 0 1 .75-.75h5.5a.75.75 0 0 1 0 1.5h-5.5a.75.75 0 0 1-.75-.75zm.75 3.25a.75.75 0 0 0 0 1.5h5.5a.75.75 0 0 0 0-1.5h-5.5zm-4.5-3.25a1.75 1.75 0 1 1-3.5 0 1.75 1.75 0 0 1 3.5 0zm-4.25 2.75h5a1 1 0 0 1 1 1v.5s-.5 2.5-3.5 2.5-3.5-2.5-3.5-2.5v-.5a1 1 0 0 1 1-1zM0 2.75A2.75 2.75 0 0 1 2.75 0h18.497a2.75 2.75 0 0 1 2.75 2.75v14.5a2.75 2.75 0 0 1-2.75 2.75H2.75A2.75 2.75 0 0 1 0 17.25V2.75zM2.75 1.5c-.69 0-1.25.56-1.25 1.25v14.5c0 .69.56 1.25 1.25 1.25h18.497c.69 0 1.25-.56 1.25-1.25V2.75c0-.69-.56-1.25-1.25-1.25H2.75z"
      />
    </symbol>
    <symbol id="relation" viewBox="0 0 17 17">
      <path
        fill="currentColor"
        d="M7 0a4 4 0 1 0 0 8 4 4 0 0 0 0-8zM2.009 9A2.001 2.001 0 0 0 0 11c0 1.691.833 2.966 2.135 3.797C3.417 15.614 5.145 16 7 16c.955 0 1.876-.102 2.72-.313l-1.83-2.002A3.394 3.394 0 0 1 7.987 9h-5.98zm10.49 1.003l-.628-.493a2.394 2.394 0 0 0-3.244 3.5l3.503 3.83a.5.5 0 0 0 .738 0l3.504-3.83a2.394 2.394 0 0 0-3.244-3.5l-.629.493z"
      />
    </symbol>
    <symbol id="mypage_focus" viewBox="0 0 24 20">
      <path
        fill="currentColor"
        d="M2.75 0A2.75 2.75 0 0 0 0 2.75v14.5A2.75 2.75 0 0 0 2.75 20h18.497a2.75 2.75 0 0 0 2.75-2.75V2.75A2.75 2.75 0 0 0 21.247 0H2.75zm10.246 7.75a.75.75 0 0 1 .75-.75h5.5a.75.75 0 0 1 0 1.5h-5.5a.75.75 0 0 1-.75-.75zm.75 3.25h5.5a.75.75 0 0 1 0 1.5h-5.5a.75.75 0 0 1 0-1.5zm-4.5-3.25a1.75 1.75 0 1 1-3.5 0 1.75 1.75 0 0 1 3.5 0zm-4.25 2.75h5a1 1 0 0 1 1 1v.5s-.5 2.5-3.5 2.5-3.5-2.5-3.5-2.5v-.5a1 1 0 0 1 1-1z"
      />
    </symbol>
    <symbol id="people" viewBox="0 0 24 22">
      <path
        fill="currentColor"
        d="M15.254 8a2.25 2.25 0 0 1 2.25 2.25v6.249a5.501 5.501 0 0 1-11.002 0V10.25A2.25 2.25 0 0 1 8.752 8h6.502zm0 1.5H8.752a.75.75 0 0 0-.75.75v6.249a4.001 4.001 0 0 0 8.002 0V10.25a.75.75 0 0 0-.75-.75zM2.25 8h4.156a3.244 3.244 0 0 0-.817 1.5H2.25a.75.75 0 0 0-.75.75v5.249a3.001 3.001 0 0 0 4.238 2.735c.133.49.324.956.564 1.392A4.501 4.501 0 0 1 0 15.499V10.25A2.25 2.25 0 0 1 2.25 8zm19.5 0A2.25 2.25 0 0 1 24 10.25v5.25a4.5 4.5 0 0 1-6.298 4.127l.056-.102c.214-.406.387-.837.511-1.289A3 3 0 0 0 22.5 15.5v-5.25a.75.75 0 0 0-.749-.75h-3.333A3.243 3.243 0 0 0 17.6 8h4.151zM12 0a3.5 3.5 0 1 1 0 7 3.5 3.5 0 0 1 0-7zm8.003 1a3 3 0 1 1 0 6 3 3 0 0 1 0-6zM3.997 1a3 3 0 1 1 0 6 3 3 0 0 1 0-6zM12 1.5a2 2 0 1 0 0 4 2 2 0 0 0 0-4zm8.003 1a1.5 1.5 0 1 0 0 3 1.5 1.5 0 0 0 0-3zm-16.006 0a1.5 1.5 0 1 0 0 3 1.5 1.5 0 0 0 0-3z"
      />
    </symbol>
    <symbol id="process" viewBox="0 0 17 17">
      <path
        fill="currentColor"
        d="M3.868 1.166C6.24-.288 9.04-.424 11.795.992c3.976 2.042 5.502 6.162 4.187 10.435-.415 1.35-1.245 2.698-2.372 3.59-1.14.902-2.603 1.347-4.205.799-1.103-.377-1.79-.967-2.204-1.68-.404-.696-.519-1.462-.574-2.132a25.653 25.653 0 0 1-.038-.586c-.008-.132-.015-.259-.023-.369a4.725 4.725 0 0 0-.1-.76 1.163 1.163 0 0 0-.206-.466.75.75 0 0 0-.387-.244C5.356 9.42 5 9.453 4.718 9.543c-.248.078-.447.2-.69.346a17.07 17.07 0 0 1-.196.119c-.316.186-.72.396-1.239.37-.514-.025-1.045-.275-1.655-.773C.268 9.06.003 8.295 0 7.493c-.003-.788.243-1.635.614-2.434.737-1.59 2.043-3.15 3.254-3.893zm3.98 3.584a1 1 0 1 0 0-2 1 1 0 0 0 0 2zm3 1a1 1 0 1 0 0-2 1 1 0 0 0 0 2zM13.598 7a1 1 0 1 0-2 0 1 1 0 0 0 2 0zm-1 4a1 1 0 1 0 0-2 1 1 0 0 0 0 2zm-1 1a1 1 0 1 0-2 0 1 1 0 0 0 2 0z"
      />
    </symbol>
    <symbol id="project_focus" viewBox="0 0 19 24">
      <path
        fill="currentColor"
        d="M11.375 1.75H7.292a.875.875 0 1 0 0 1.75h4.083a.875.875 0 0 0 0-1.75zm0-1.75c1.329 0 2.427.988 2.601 2.269l.016.158-.008-.094h2.058a2.625 2.625 0 0 1 2.625 2.625v15.75a2.625 2.625 0 0 1-2.625 2.625H2.625A2.625 2.625 0 0 1 0 20.708V4.958a2.625 2.625 0 0 1 2.625-2.625h2.058l-.01.094.018-.158A2.626 2.626 0 0 1 7.29 0h4.084zm.292 17.5h-7a.875.875 0 0 0 0 1.75h7a.875.875 0 1 0 0-1.75zm-2.334-4.667H4.667a.875.875 0 0 0 0 1.75h4.666a.875.875 0 1 0 0-1.75zM14 8.167H4.667a.875.875 0 1 0 0 1.75H14a.875.875 0 0 0 0-1.75z"
      />
    </symbol>
    <symbol id="people_focus" viewBox="0 0 24 22">
      <path
        fill="currentColor"
        d="M15.754 8c.967 0 1.75.784 1.75 1.75v6.749a5.501 5.501 0 0 1-11.002 0V9.75c0-.966.783-1.75 1.75-1.75h7.502zM1.75 8l4.382-.002a2.73 2.73 0 0 0-.621 1.532l-.01.22v6.749c0 1.133.291 2.199.8 3.127A4.501 4.501 0 0 1 0 15.499V9.75A1.752 1.752 0 0 1 1.751 8zm16.124-.002L22.25 8c.966 0 1.75.784 1.75 1.75v5.75a4.5 4.5 0 0 1-6.298 4.127l.056-.102c.429-.813.69-1.729.738-2.7l.008-.326V9.75c0-.666-.237-1.276-.63-1.752zM12 0a3.5 3.5 0 1 1 0 7 3.5 3.5 0 0 1 0-7zm8.003 1a3 3 0 1 1 0 6 3 3 0 0 1 0-6zM3.997 1a3 3 0 1 1 0 6 3 3 0 0 1 0-6z"
      />
    </symbol>
    <symbol id="project" viewBox="0 0 19 24">
      <path
        fill="currentColor"
        d="M11.375 0c1.39 0 2.527 1.08 2.619 2.445l.006.18a2.56 2.56 0 0 0-.016-.292h2.058a2.625 2.625 0 0 1 2.625 2.625v15.75a2.625 2.625 0 0 1-2.625 2.625H2.625A2.625 2.625 0 0 1 0 20.708V4.958a2.625 2.625 0 0 1 2.625-2.625h2.058a2.646 2.646 0 0 0-.015.206l-.001.086A2.625 2.625 0 0 1 7.292 0h4.083zm0 5.25H7.292c-.927 0-1.741-.48-2.208-1.205l.025.039H2.625a.875.875 0 0 0-.875.874v15.75c0 .484.392.875.875.875h13.417a.875.875 0 0 0 .875-.875V4.958a.875.875 0 0 0-.875-.875h-2.484l.025-.038a2.623 2.623 0 0 1-2.208 1.205zm0-3.5H7.292a.875.875 0 1 0 0 1.75h4.083a.875.875 0 0 0 0-1.75zM4.667 14.583h4.666a.875.875 0 1 0 0-1.75H4.667a.875.875 0 0 0 0 1.75zm0-4.666H14a.875.875 0 0 0 0-1.75H4.667a.875.875 0 1 0 0 1.75zm0 9.333h7a.875.875 0 1 0 0-1.75h-7a.875.875 0 0 0 0 1.75z"
      />
    </symbol>
    <symbol id="alert" viewBox="0 0 20 22">
      <path
        fill="currentColor"
        d="M10.006 0a8.501 8.501 0 0 1 8.497 8.246l.004.255v4.612l1.414 3.644c.038.098.064.201.076.305l.01.158a1.28 1.28 0 0 1-1.149 1.273l-.13.007-5.221.001a3.501 3.501 0 0 1-6.998.192l-.005-.194-5.224.001a1.28 1.28 0 0 1-1.234-1.62l.041-.124 1.417-3.644v-4.61A8.501 8.501 0 0 1 10.006 0zM12 18.65l.005-.151-4.002.002a2.001 2.001 0 0 0 3.998.15zM10.006 1.5a7.001 7.001 0 0 0-6.998 6.76l-.004.241v4.752a.75.75 0 0 1-.022.184l-.029.088L1.602 17h16.804l-1.348-3.474a.748.748 0 0 1-.046-.18l-.005-.092V8.501A7.001 7.001 0 0 0 10.006 1.5z"
      />
    </symbol>
    <symbol id="clear" viewBox="0 0 20 20">
        <path 
        fill="currentColor"
        d="M5.89705 6.05379L5.96967 5.96967C6.23594 5.7034 6.6526 5.6792 6.94621 5.89705L7.03033 5.96967L10 8.939L12.9697 5.96967C13.2626 5.67678 13.7374 5.67678 14.0303 5.96967C14.3232 6.26256 14.3232 6.73744 14.0303 7.03033L11.061 10L14.0303 12.9697C14.2966 13.2359 14.3208 13.6526 14.1029 13.9462L14.0303 14.0303C13.7641 14.2966 13.3474 14.3208 13.0538 14.1029L12.9697 14.0303L10 11.061L7.03033 14.0303C6.73744 14.3232 6.26256 14.3232 5.96967 14.0303C5.67678 13.7374 5.67678 13.2626 5.96967 12.9697L8.939 10L5.96967 7.03033C5.7034 6.76406 5.6792 6.3474 5.89705 6.05379L5.96967 5.96967L5.89705 6.05379Z"/>
    </symbol>
    <symbol id="lock_closed" viewBox="0 0 28 28">
      <path d="M9 6.5C9 4.01472 11.0147 2 13.5 2C15.9853 2 18 4.01472 18 6.5V8H19.25C21.3211 8 23 9.67893 23 11.75V21.25C23 23.3211 21.3211 25 19.25 25H7.75C5.67893 25 4 23.3211 4 21.25V11.75C4 9.67893 5.67893 8 7.75 8H9V6.5ZM13.5 3.5C11.8431 3.5 10.5 4.84315 10.5 6.5V8H16.5V6.5C16.5 4.84315 15.1569 3.5 13.5 3.5ZM13.5 18C14.3284 18 15 17.3284 15 16.5C15 15.6716 14.3284 15 13.5 15C12.6716 15 12 15.6716 12 16.5C12 17.3284 12.6716 18 13.5 18Z" fill="currentColor"/>
    </symbol>
    <symbol id="group_person" viewBox="0 0 52 52">
        <rect x="0.5" y="0.5" width="31" height="31" rx="15.5" />
        <rect x="0.5" y="0.5" width="31" height="31" rx="15.5" fill="currentColor" stroke="#E3E6E8"/>
        <rect x="20.5" y="0.5" width="31" height="31" rx="15.5" />
        <rect x="20.5" y="0.5" width="31" height="31" rx="15.5" fill="currentColor"  stroke="#E3E6E8"/>
        <rect x="0.5" y="20.5" width="31" height="31" rx="15.5"/>
        <rect x="0.5" y="20.5" width="31" height="31" rx="15.5" fill="currentColor"  stroke="#E3E6E8"/>
        <rect x="20.5" y="20.5" width="31" height="31" rx="15.5"/>
        <rect x="20.5" y="20.5" width="31" height="31" rx="15.5" fill="currentColor"  stroke="#E3E6E8"/>
        <path d="M36 28C33.7909 28 32 29.7909 32 32C32 34.2091 33.7909 36 36 36C38.2091 36 40 34.2091 40 32C40 29.7909 38.2091 28 36 28ZM31.0087 37C29.9032 37 29 37.8869 29 39C29 40.6912 29.8328 41.9663 31.135 42.7966C32.417 43.614 34.1453 44 36 44C37.8547 44 39.583 43.614 40.865 42.7966C42.1672 41.9663 43 40.6912 43 39C43 37.8956 42.1045 37 41 37L31.0087 37Z" fill="#E3E6E8"/>
        <path d="M36 28C33.7909 28 32 29.7909 32 32C32 34.2091 33.7909 36 36 36C38.2091 36 40 34.2091 40 32C40 29.7909 38.2091 28 36 28ZM31.0087 37C29.9032 37 29 37.8869 29 39C29 40.6912 29.8328 41.9663 31.135 42.7966C32.417 43.614 34.1453 44 36 44C37.8547 44 39.583 43.614 40.865 42.7966C42.1672 41.9663 43 40.6912 43 39C43 37.8956 42.1045 37 41 37L31.0087 37Z" fill="#E3E6E8"/>
    </symbol>
    <symbol id="iOS_chevron_right" viewBox="0 0 20 20">
      <path d="M12.2197 6.03033C11.9268 5.73744 11.9268 5.26256 12.2197 4.96967C12.5126 4.67678 12.9874 4.67678 13.2803 4.96967L17.7803 9.46967C18.0732 9.76256 18.0732 10.2374 17.7803 10.5303L13.2803 15.0303C12.9874 15.3232 12.5126 15.3232 12.2197 15.0303C11.9268 14.7374 11.9268 14.2626 12.2197 13.9697L16.1893 10L12.2197 6.03033Z" fill="currentColor"/>
    </symbol>
    <symbol id="document_text" viewBox="0 0 24 24">
      <path d="M12 8V2H6C4.89543 2 4 2.89543 4 4V20C4 21.1046 4.89543 22 6 22H18C19.1046 22 20 21.1046 20 20V10H14C12.8954 10 12 9.10457 12 8ZM8.25 11.5H15.75C16.1642 11.5 16.5 11.8358 16.5 12.25C16.5 12.6642 16.1642 13 15.75 13H8.25C7.83579 13 7.5 12.6642 7.5 12.25C7.5 11.8358 7.83579 11.5 8.25 11.5ZM8.25 14.25H15.75C16.1642 14.25 16.5 14.5858 16.5 15C16.5 15.4142 16.1642 15.75 15.75 15.75H8.25C7.83579 15.75 7.5 15.4142 7.5 15C7.5 14.5858 7.83579 14.25 8.25 14.25ZM8.25 17H15.75C16.1642 17 16.5 17.3358 16.5 17.75C16.5 18.1642 16.1642 18.5 15.75 18.5H8.25C7.83579 18.5 7.5 18.1642 7.5 17.75C7.5 17.3358 7.83579 17 8.25 17ZM13.5 8V2.5L19.5 8.5H14C13.7239 8.5 13.5 8.27614 13.5 8Z" fill="currentColor"/>
    </symbol>
    <symbol id="color_line" viewBox="0 0 24 24">
      <path d="M4.38181 14H4C2.89543 14 2 14.8954 2 16V20C2 21.1046 2.89543 22 4 22H20C21.1046 22 22 21.1046 22 20V16C22 14.8954 21.1046 14 20 14H13.546L12.2298 15.314C11.8499 15.6932 11.3821 15.9725 10.868 16.1268L6.57499 17.4154C5.51705 17.733 4.40199 17.1328 4.08444 16.0748C3.96796 15.6868 3.97208 15.2725 4.09626 14.8868L4.38181 14ZM18.6479 2.94403C19.9043 4.20118 19.9036 6.23878 18.6465 7.49513L11.5233 14.6063C11.2603 14.8688 10.9364 15.0622 10.5805 15.169L6.28749 16.4576C5.75853 16.6164 5.201 16.3163 5.04222 15.7873C4.98398 15.5933 4.98604 15.3862 5.04813 15.1933L6.40953 10.9653C6.51917 10.6248 6.70841 10.3153 6.96156 10.0626L14.0944 2.94144C15.3527 1.68518 17.391 1.68634 18.6479 2.94403Z" fill="currentColor"/>
    </symbol>
    <symbol id="add_circle" viewBox="0 0 32 32">
        <path d="M16 30C23.732 30 30 23.732 30 16C30 8.26801 23.732 2 16 2C8.26801 2 2 8.26801 2 16C2 23.732 8.26801 30 16 30ZM15 11C15 10.4477 15.4477 10 16 10C16.5523 10 17 10.4477 17 11V15H21C21.5523 15 22 15.4477 22 16C22 16.5523 21.5523 17 21 17H17V21C17 21.5523 16.5523 22 16 22C15.4477 22 15 21.5523 15 21V17H11C10.4477 17 10 16.5523 10 16C10 15.4477 10.4477 15 11 15H15V11Z" fill="currentColor"/>
    </symbol>
    <symbol id="notepad_person" viewBox="0 0 24 24">
        <path d="M16.2495 2C16.6292 2 16.943 2.28215 16.9927 2.64823L16.9995 2.75L16.999 3.499L17.7481 3.49986C18.9905 3.50029 19.9977 4.50734 19.9981 5.7499L19.9986 11.3361C19.5443 11.1206 19.0362 11 18.5 11C16.567 11 15 12.567 15 14.5C15 15.4793 15.4022 16.3647 16.0505 17H15.7727C14.2419 17 13 18.2401 13 19.772V19.875C13 20.6161 13.2148 21.3581 13.6684 22.0046H5.75327C4.51081 22.0044 3.50358 20.9972 3.50326 19.7547L3.50195 5.7502C3.50163 4.50751 4.50891 3.49986 5.7516 3.49986L6.49895 3.499L6.49952 2.75C6.49952 2.33579 6.83531 2 7.24952 2C7.62921 2 7.94301 2.28215 7.99267 2.64823L7.99952 2.75L7.99895 3.499H11.001L11.0015 2.75C11.0015 2.33579 11.3372 2 11.7515 2C12.1312 2 12.4449 2.28215 12.4946 2.64823L12.5015 2.75L12.501 3.499H15.499L15.4995 2.75C15.4995 2.33579 15.8353 2 16.2495 2ZM11.2479 16H7.2497L7.14793 16.0068C6.78185 16.0565 6.4997 16.3703 6.4997 16.75C6.4997 17.1297 6.78185 17.4435 7.14793 17.4932L7.2497 17.5H11.2479L11.3497 17.4932C11.7158 17.4435 11.9979 17.1297 11.9979 16.75C11.9979 16.3703 11.7158 16.0565 11.3497 16.0068L11.2479 16ZM16.2479 8H7.2497L7.14793 8.00685C6.78185 8.05651 6.4997 8.3703 6.4997 8.75C6.4997 9.1297 6.78185 9.44349 7.14793 9.49315L7.2497 9.5H16.2479L16.3497 9.49315C16.7158 9.44349 16.9979 9.1297 16.9979 8.75C16.9979 8.3703 16.7158 8.05651 16.3497 8.00685L16.2479 8ZM6.5 12.75C6.5 13.1642 6.83579 13.5 7.25 13.5H13.25C13.6642 13.5 14 13.1642 14 12.75C14 12.3358 13.6642 12 13.25 12H7.25C6.83579 12 6.5 12.3358 6.5 12.75ZM21 14.5C21 15.8807 19.8807 17 18.5 17C17.1193 17 16 15.8807 16 14.5C16 13.1193 17.1193 12 18.5 12C19.8807 12 21 13.1193 21 14.5ZM23 19.875C23 21.4315 21.7143 23 18.5 23C15.2857 23 14 21.4374 14 19.875V19.772C14 18.7929 14.7937 18 15.7727 18H21.2273C22.2063 18 23 18.793 23 19.772V19.875Z" fill="currentColor"/>
    </symbol>
    <symbol id="person" viewBox="0 0 48 48">
        <path d="M24 4C18.4772 4 14 8.47715 14 14C14 19.5228 18.4772 24 24 24C29.5228 24 34 19.5228 34 14C34 8.47715 29.5228 4 24 4ZM12.2499 28C9.90326 28 8.00002 29.9013 8 32.2489L8 33C8 36.7555 9.94167 39.5669 12.9202 41.3802C15.8491 43.1633 19.7861 44 24 44C28.2139 44 32.1509 43.1633 35.0798 41.3802C38.0583 39.5669 40 36.7555 40 33L40 32.2487C40 29.9011 38.0967 28 35.7502 28H12.2499Z" fill="currentColor"/>
    </symbol>
    <symbol id="complete" viewBox="0 0 16 16">
      <path fill="currentColor" d="M8 0a8 8 0 1 1 0 16A8 8 0 0 1 8 0zm3.358 5.646a.5.5 0 0 0-.637-.057l-.07.057L7 9.298 5.354 7.651l-.07-.058a.5.5 0 0 0-.695.696l.057.07 2 2 .07.057a.5.5 0 0 0 .568 0l.07-.058 4.004-4.004.058-.07a.5.5 0 0 0-.058-.638z"/>
    </symbol>
    <symbol id="hearted_person" viewBox="0 0 21 21">
      <path fill="currentColor" d="M9.394 17.07a4.469 4.469 0 0 1-.877-5.075H2.249A2.249 2.249 0 0 0 0 14.245v.92c0 .571.178 1.129.51 1.595 1.543 2.164 4.065 3.236 7.486 3.236 1.413 0 2.673-.182 3.774-.55L9.394 17.07zM7.996 0a5 5 0 1 1 0 10 5 5 0 0 1 0-10zm7.044 20.991a.747.747 0 0 1-.53-.22l-4.41-4.407a3.467 3.467 0 0 1 4.903-4.902l.036.036.036-.036a3.467 3.467 0 0 1 4.903 4.902l-4.409 4.409a.747.747 0 0 1-.53.22z"/>
    </symbol>
    <symbol id="error" viewBox="0 0 20 20">
      <path fill="currentColor" d="M10 0c5.523 0 10 4.478 10 10s-4.477 10-10 10S0 15.522 0 10 4.477 0 10 0zm.002 13.004a.999.999 0 1 0 0 1.997.999.999 0 0 0 0-1.997zM10 5a1 1 0 0 0-.993.884L9 6l.002 5.001.007.117a1 1 0 0 0 1.986 0l.007-.117L11 6l-.007-.117A1 1 0 0 0 10 5z"/>
    </symbol>
    <symbol id="ribbon_star" viewBox="0 0 24 24">
      <path d="M17.0009 21.2451L17.0016 15.2441C15.6318 16.3428 13.8926 17 12 17C10.1084 17 8.37019 16.3435 7.00069 15.2459L7.00252 21.2451C7.00252 21.8529 7.68747 22.2082 8.18436 21.8583L12.0008 19.1706L15.8192 21.8584C16.3161 22.2082 17.0009 21.8528 17.0009 21.2451ZM19 9C19 5.13401 15.866 2 12 2C8.13401 2 5 5.13401 5 9C5 12.866 8.13401 16 12 16C15.866 16 19 12.866 19 9ZM12.2288 5.64234L13.1414 7.495L15.1853 7.79036C15.3946 7.8206 15.4783 8.07783 15.3268 8.22543L13.8485 9.66589L14.1975 11.7013C14.2332 11.9097 14.0144 12.0686 13.8273 11.97L12.0001 11.0076L10.1728 11.97C9.98566 12.0686 9.76674 11.9096 9.80266 11.7011L10.1534 9.66589L8.67339 8.22553C8.52177 8.07798 8.60539 7.82061 8.81478 7.79036L10.8587 7.495L11.7713 5.64234C11.8648 5.45255 12.1354 5.45255 12.2288 5.64234Z" fill="currentColor"/>
    </symbol>
    <symbol id="heart_pulse" viewBox="0 0 24 24">
        <path d="M12.8197 5.58107L11.999 6.40358L11.1757 5.58033C9.07663 3.48126 5.67337 3.48126 3.5743 5.58033C2.10291 7.05172 1.66293 9.16393 2.25434 11.0186C2.33461 11.0073 2.41662 11.0015 2.5 11.0015H5.74386L7.16926 8.00062C7.4564 7.39612 8.06314 7.00831 8.73233 7.00155C9.40151 6.9948 10.016 7.37027 10.3152 7.96884L12.2731 11.8844L13.8313 9.72686C14.1435 9.2946 14.6357 9.02825 15.1684 9.00337C15.701 8.97849 16.2159 9.1978 16.567 9.59908L17.7941 11.0015H21.5C21.5842 11.0015 21.667 11.0074 21.7481 11.0189C22.341 9.16361 21.9031 7.05387 20.4303 5.58107C18.3274 3.47818 14.9226 3.47819 12.8197 5.58107ZM11.4697 21.0771L4.89404 14.5015H6.85C7.5256 14.5015 8.14086 14.1126 8.43074 13.5023L8.79034 12.7453L10.4348 16.0341C10.7085 16.5816 11.2484 16.9463 11.8585 16.9957C12.4687 17.0452 13.0603 16.7723 13.4187 16.2761L15.3811 13.5589L15.683 13.9038C16.0153 14.2836 16.4954 14.5015 17 14.5015H19.1098L12.5303 21.0771C12.2374 21.37 11.7626 21.37 11.4697 21.0771ZM8.74188 8.00151C9.02887 7.9984 9.29247 8.15935 9.42082 8.41606L12.117 13.8085L14.642 10.3123C14.7758 10.1271 14.9867 10.0129 15.215 10.0023C15.4433 9.99162 15.664 10.0856 15.8144 10.2576L17.3403 12.0015H21.25C21.6642 12.0015 22 12.3373 22 12.7515C22 13.1657 21.6642 13.5015 21.25 13.5015H17C16.7837 13.5015 16.578 13.4081 16.4356 13.2453L15.3062 11.9546L12.608 15.6906C12.4544 15.9033 12.2009 16.0202 11.9394 15.999C11.6779 15.9778 11.4465 15.8215 11.3292 15.5869L8.76856 10.4656L7.53507 13.0723C7.41105 13.3343 7.14708 13.5015 6.85714 13.5015H2.75C2.33579 13.5015 2 13.1657 2 12.7515C2 12.3373 2.33579 12.0015 2.75 12.0015H6.38232L8.07207 8.43066C8.19484 8.17123 8.45489 8.00462 8.74188 8.00151Z" fill="currentColor"/>
    </symbol>
    <symbol id="light_bulb" viewBox="0 0 24 24">
        <path d="M15.538 18.998L15.2473 20.2565C15.0241 21.2198 14.2013 21.9174 13.2285 21.992L13.0554 21.9986H10.9437C9.95426 21.9986 9.0885 21.3537 8.79678 20.4222L8.75135 20.2549L8.461 18.998H15.538ZM12 2C16.0041 2 19.25 5.24593 19.25 9.25C19.25 11.3866 18.3144 13.3433 16.4846 15.0907C16.4493 15.1245 16.4247 15.1677 16.4137 15.2153L15.886 17.498H8.114L7.58801 15.2154C7.57702 15.1678 7.55234 15.1245 7.51701 15.0908C5.68616 13.3433 4.75 11.3866 4.75 9.25C4.75 5.24593 7.99593 2 12 2Z" fill="currentColor"/>
    </symbol>
    <symbol id="thumb_like_dislike" viewBox="0 0 24 24">
        <path d="M6.04026 3.1769C6.30509 2.56122 7.10395 1.77224 8.21961 2.06173C8.91992 2.24344 9.424 2.66278 9.70865 3.23934C9.95661 3.7416 9.9998 4.28984 10.0084 4.70572C10.0165 5.10251 9.95273 5.53394 9.87107 5.91977H10.065C11.6225 5.91977 12.8871 7.35242 12.397 8.91082L11.2478 12.5647C10.7816 14.047 9.14781 14.8148 7.66956 14.3813L3.1579 13.0582C2.45717 12.8527 1.87433 12.3504 1.60095 11.6711L1.16292 10.5827C0.724195 9.49258 1.20342 8.29659 2.21789 7.73782L3.76023 6.8883C3.76769 6.88279 3.77767 6.87522 3.78999 6.86546C3.84101 6.82507 3.93296 6.74661 4.05294 6.62027C4.29193 6.3686 4.64871 5.92005 5.01534 5.19163C5.1926 4.83944 5.34186 4.56235 5.47364 4.3177L5.47459 4.31593C5.68736 3.92094 5.85164 3.61539 6.04026 3.1769ZM17.9597 20.8231C17.6949 21.4388 16.896 22.2278 15.7804 21.9383C15.0801 21.7566 14.576 21.3372 14.2914 20.7607C14.0434 20.2584 14.0002 19.7102 13.9916 19.2943C13.9835 18.8975 14.0473 18.4661 14.1289 18.0802H13.935C12.3775 18.0802 11.1129 16.6476 11.603 15.0892L12.7522 11.4353C13.2184 9.953 14.8522 9.18525 16.3304 9.61874L20.8421 10.9418C21.5428 11.1473 22.1257 11.6496 22.399 12.3289L22.8371 13.4173C23.2758 14.5074 22.7966 15.7034 21.7821 16.2622L20.2398 17.1117C20.2323 17.1172 20.2223 17.1248 20.21 17.1345C20.159 17.1749 20.067 17.2534 19.9471 17.3797C19.7081 17.6314 19.3513 18.0799 18.9847 18.8084C18.8074 19.1606 18.6581 19.4377 18.5264 19.6823L18.5254 19.6841C18.3126 20.0791 18.1484 20.3846 17.9597 20.8231Z" fill="currentColor"/>
    </symbol>
    <symbol id="comment_error" viewBox="0 0 24 24">
        <path d="M23 6.5C23 9.53757 20.5376 12 17.5 12C14.4624 12 12 9.53757 12 6.5C12 3.46243 14.4624 1 17.5 1C20.5376 1 23 3.46243 23 6.5ZM17.5 3C17.2239 3 17 3.22386 17 3.5V7.5C17 7.77614 17.2239 8 17.5 8C17.7761 8 18 7.77614 18 7.5V3.5C18 3.22386 17.7761 3 17.5 3ZM17.5 10.125C17.8452 10.125 18.125 9.84518 18.125 9.5C18.125 9.15482 17.8452 8.875 17.5 8.875C17.1548 8.875 16.875 9.15482 16.875 9.5C16.875 9.84518 17.1548 10.125 17.5 10.125ZM17.5 13C19.2465 13 20.8321 12.3112 22 11.1904V14.75C22 16.5449 20.5449 18 18.75 18H13L8 21.75C7.17595 22.368 6 21.7801 6 20.75V18H5.25C3.45508 18 2 16.5449 2 14.75V6.25C2 4.45507 3.45507 3 5.25 3H12.0218C11.375 4.0103 11 5.21136 11 6.5C11 10.0899 13.9101 13 17.5 13Z" fill="currentColor"/>
    </symbol>
    <symbol id="person_delete" viewBox="0 0 24 24">
        <path d="M17.5004 11.9993C20.5379 11.9993 23.0004 14.4617 23.0004 17.4993C23.0004 20.5368 20.5379 22.9993 17.5004 22.9993C14.4628 22.9993 12.0004 20.5368 12.0004 17.4993C12.0004 14.4617 14.4628 11.9993 17.5004 11.9993ZM12.0226 13.9986C11.3755 15.009 11.0004 16.2103 11.0004 17.4993C11.0004 19.1435 11.6108 20.6451 12.6175 21.7898C11.8153 21.9306 10.9423 22.0004 10.0004 22.0004C7.11087 22.0004 4.87205 21.3438 3.30918 20.0001C2.48056 19.2877 2.00391 18.2493 2.00391 17.1565V16.2492C2.00391 15.0066 3.01127 13.9992 4.25391 13.9992L12.0226 13.9986ZM15.0934 14.9656L15.0242 15.0234L14.9663 15.0927C14.8482 15.2632 14.8482 15.4908 14.9663 15.6613L15.0242 15.7305L16.7937 17.5L15.0268 19.2668L14.9689 19.336C14.8508 19.5065 14.8508 19.7341 14.9689 19.9046L15.0268 19.9739L15.096 20.0317C15.2665 20.1499 15.4941 20.1499 15.6646 20.0317L15.7339 19.9739L17.5007 18.207L19.2698 19.9761L19.339 20.034C19.5095 20.1521 19.7371 20.1521 19.9076 20.034L19.9769 19.9761L20.0347 19.9069C20.1528 19.7364 20.1528 19.5088 20.0347 19.3383L19.9769 19.269L18.2077 17.5L19.9796 15.7306L20.0375 15.6613C20.1556 15.4908 20.1556 15.2632 20.0375 15.0927L19.9796 15.0235L19.9104 14.9656C19.7399 14.8475 19.5123 14.8475 19.3418 14.9656L19.2725 15.0235L17.5007 16.793L15.7313 15.0234L15.662 14.9656C15.5159 14.8643 15.3278 14.8499 15.1696 14.9222L15.0934 14.9656ZM10.0004 2.00391C12.7618 2.00391 15.0004 4.24248 15.0004 7.00391C15.0004 9.76533 12.7618 12.0039 10.0004 12.0039C7.23894 12.0039 5.00036 9.76533 5.00036 7.00391C5.00036 4.24248 7.23894 2.00391 10.0004 2.00391Z" fill="currentColor"/>
    </symbol>
    <symbol id="share" viewBox="0 0 28 28">
      <path d="M18.27 3.2105L25.77 10.4605C25.8426 10.5305 25.9003 10.6143 25.9398 10.7071C25.9792 10.7999 25.9995 10.8997 25.9995 11.0005C25.9995 11.1013 25.9792 11.2011 25.9398 11.2939C25.9003 11.3867 25.8426 11.4705 25.77 11.5405L18.27 18.7905C18.2014 18.8581 18.1202 18.9114 18.031 18.9474C17.9417 18.9835 17.8462 19.0015 17.75 19.0005C17.6502 19.0008 17.5515 18.9804 17.46 18.9405C17.324 18.8835 17.2078 18.7876 17.126 18.6649C17.0441 18.5421 17.0003 18.398 17 18.2505V14.5105C10.3 14.7805 7.48 18.5305 7.36 18.6905C7.26453 18.8162 7.13275 18.9095 6.98251 18.9577C6.83226 19.006 6.67081 19.007 6.52 18.9605C6.36957 18.912 6.2383 18.8173 6.14492 18.6898C6.05153 18.5623 6.00081 18.4085 6 18.2505C6 10.2305 12.59 7.7705 17 7.5205V3.7505C17.0003 3.603 17.0441 3.45887 17.126 3.33614C17.2078 3.21341 17.324 3.11754 17.46 3.0605C17.5947 3.00242 17.7436 2.98566 17.8878 3.01237C18.032 3.03908 18.1651 3.10804 18.27 3.2105ZM7.75 4.00049C5.12665 4.00049 3 6.12714 3 8.75049V20.2505C3 22.8738 5.12665 25.0005 7.75 25.0005H19.25C21.8734 25.0005 24 22.8738 24 20.2505V19.7505C24 19.3363 23.6642 19.0005 23.25 19.0005C22.8358 19.0005 22.5 19.3363 22.5 19.7505V20.2505C22.5 22.0454 21.0449 23.5005 19.25 23.5005H7.75C5.95507 23.5005 4.5 22.0454 4.5 20.2505V8.75049C4.5 6.95556 5.95507 5.50049 7.75 5.50049H12.25C12.6642 5.50049 13 5.1647 13 4.75049C13 4.33627 12.6642 4.00049 12.25 4.00049H7.75Z" fill="currentColor"/>
    </symbol>
    <symbol id="calendar_error" viewBox="0 0 20 20">
      <path d="M21 12.0218V8.5H3V17.75C3 19.5449 4.45507 21 6.25 21H12.0218C11.375 19.9897 11 18.7886 11 17.5C11 13.9101 13.9101 11 17.5 11C18.7886 11 19.9897 11.375 21 12.0218ZM21 6.25C21 4.45507 19.5449 3 17.75 3H6.25C4.45507 3 3 4.45507 3 6.25V7H21V6.25ZM23 17.5C23 14.4624 20.5376 12 17.5 12C14.4624 12 12 14.4624 12 17.5C12 20.5376 14.4624 23 17.5 23C20.5376 23 23 20.5376 23 17.5ZM17 14.5C17 14.2239 17.2239 14 17.5 14C17.7761 14 18 14.2239 18 14.5V18.5C18 18.7761 17.7761 19 17.5 19C17.2239 19 17 18.7761 17 18.5V14.5ZM18.125 20.5C18.125 20.8452 17.8452 21.125 17.5 21.125C17.1548 21.125 16.875 20.8452 16.875 20.5C16.875 20.1548 17.1548 19.875 17.5 19.875C17.8452 19.875 18.125 20.1548 18.125 20.5Z" fill="currentColor"/>
    </symbol>
    <symbol id="checkbox_person" viewBox="0 0 20 20">
      <path d="M6.25 3C4.45507 3 3 4.45508 3 6.25V17.75C3 19.5449 4.45508 21 6.25 21H13.1718C13.0562 20.6334 13 20.2541 13 19.875V19.772C13 18.2401 14.2419 17 15.7727 17H16.0505C15.4022 16.3647 15 15.4793 15 14.5C15 12.567 16.567 11 18.5 11C19.4793 11 20.3647 11.4022 21 12.0505V6.25C21 4.45507 19.5449 3 17.75 3H6.25ZM17.28 9.28064L10.5263 16.0266C10.2333 16.3192 9.75868 16.319 9.46591 16.0262L6.72014 13.2803C6.42726 12.9874 6.42727 12.5125 6.72018 12.2196C7.01308 11.9268 7.48795 11.9268 7.78084 12.2197L9.99658 14.4356L16.22 8.21936C16.513 7.92664 16.9879 7.92691 17.2806 8.21998C17.5734 8.51304 17.5731 8.98791 17.28 9.28064ZM21 14.5C21 15.8807 19.8807 17 18.5 17C17.1193 17 16 15.8807 16 14.5C16 13.1193 17.1193 12 18.5 12C19.8807 12 21 13.1193 21 14.5ZM23 19.875C23 21.4315 21.7143 23 18.5 23C15.2857 23 14 21.4374 14 19.875V19.772C14 18.7929 14.7937 18 15.7727 18H21.2273C22.2063 18 23 18.793 23 19.772V19.875Z" fill="currentColor"/>
    </symbol>
</svg>
